<?xml version="1.0" standalone="no"?>
<!DOCTYPE svg PUBLIC "-//W3C//DTD SVG 1.1//EN" "http://www.w3.org/Graphics/SVG/1.1/DTD/svg11.dtd" >
<svg xmlns="http://www.w3.org/2000/svg" xmlns:xlink="http://www.w3.org/1999/xlink" version="1.1">
<metadata>
Created by FontForge 20170812 at Tue Jun  4 21:00:21 2019
 By root
Copyright (c) 2019 by starinkbrush - Fenny Wiryani. All rights reserved.
</metadata>
<defs>
<font id="RaybentMango" horiz-adv-x="332" >
  <font-face 
    font-family="Raybent Mango"
    font-weight="400"
    font-stretch="normal"
    units-per-em="1000"
    panose-1="0 0 0 0 0 0 0 0 0 0"
    ascent="750"
    descent="-250"
    x-height="308"
    cap-height="717"
    bbox="-264 -296.2 890 751.4"
    underline-thickness="50"
    underline-position="-100"
    unicode-range="U+0020-007A"
  />
    <missing-glyph />
    <glyph glyph-name="space" unicode=" " horiz-adv-x="348" 
 />
    <glyph glyph-name="c" unicode="c" horiz-adv-x="350" 
d="M159 256q13 -14 27 -12.5t24.5 11t15.5 24.5t0 29q-6 9 -15.5 11t-20 0.5t-20 -5.5t-14.5 -8q-26 -17 -49.5 -40.5t-41 -51.5t-27 -58.5t-6.5 -62.5q2 -35 24.5 -54t56.5 -12q29 5 66.5 30.5t75 59.5t70 71t50.5 67q9 -7 9 -12.5t-3 -10.5q-21 -36 -53.5 -78.5t-72 -80
t-83.5 -63.5t-88 -29q-26 -3 -48.5 4.5t-40 22.5t-29.5 36.5t-15 47.5q-4 35 3 67.5t21 62.5q24 51 62.5 86t94.5 52q18 5 40 4.5t40.5 -7t30.5 -21t12 -38.5q0 -42 -35 -69q-9 -6 -21 -7.5t-22 2t-15.5 12t-2.5 20.5z" />
    <glyph glyph-name="d" unicode="d" horiz-adv-x="453" 
d="M499 238q-2 -11 -13.5 -29.5t-28 -40t-37.5 -45t-42 -45.5t-41.5 -40.5t-36.5 -30.5q-26 -20 -53.5 -16.5t-47.5 27.5q-11 12 -16.5 27.5t-12.5 29.5q-20 -20 -39.5 -39t-44.5 -30q-22 -10 -44 -9t-40.5 11.5t-32 29t-18.5 43.5q-5 30 0 59q5 32 18 66.5t32.5 65t45.5 54
t57 34.5t66.5 6t74.5 -32q26 44 45.5 86.5t45.5 84.5q12 20 27.5 38.5t44.5 24.5q24 5 32 -2.5t7.5 -20.5t-6 -26t-8.5 -19q-34 -62 -62.5 -120t-55.5 -118q-6 -15 -19 -46.5t-24 -66t-16 -66.5t6 -48q9 0 27.5 12t40.5 31t46.5 42.5t46.5 46.5t39 43t26 32q4 3 6 0.5
t5 -4.5zM154 277q8 -12 18.5 -15.5t20.5 -0.5t16.5 11t6.5 18q1 14 -7.5 21.5t-22.5 5.5q-27 -2 -46 -15t-35 -32q-23 -27 -38 -59t-26 -66q-3 -12 -5.5 -32t0.5 -37t13.5 -26t33.5 1q27 13 47.5 33t36.5 44.5t27 51.5t17 55q-12 -6 -23.5 -3t-20.5 10.5t-13 17t0 17.5z" />
    <glyph glyph-name="e" unicode="e" horiz-adv-x="347" 
d="M61 200q-18 -20 -24 -50.5t1 -57.5t26.5 -43.5t54.5 -9.5q32 9 67 31t67 51t58 62t40 64q2 -12 4 -18.5t0 -10.5q-21 -39 -50.5 -79.5t-66 -73.5t-79 -54t-88.5 -21q-45 2 -77.5 30t-42.5 71q-7 32 -5 62t16 58q18 36 44 62t63 43q21 11 44 13t47 -3q26 -5 44.5 -18.5
t28.5 -39.5q9 -24 3 -43.5t-21 -36.5q-28 -31 -70 -36q-26 -2 -49 8.5t-35 39.5zM89 228q8 -31 21.5 -40.5t36.5 -3.5q29 7 44 33q9 18 -0.5 33.5t-30.5 16.5q-18 1 -37.5 -12t-33.5 -27z" />
    <glyph glyph-name="f" unicode="f" horiz-adv-x="296" 
d="M119 182q25 8 42 0.5t27.5 -23.5t15 -37t4.5 -40q-2 -90 -30.5 -166t-93.5 -124q-30 -21 -61 -17t-56.5 24.5t-41.5 53.5t-17 72q-3 54 8 104.5t32 98.5q55 121 117 210t142 163q16 15 42.5 29.5t53.5 19t48.5 -6t27.5 -46.5q1 -34 -12 -64t-35 -55.5t-51 -47.5
t-59.5 -40.5t-59.5 -34t-51 -27.5q-23 -30 -50 -75.5t-47.5 -97t-27 -105.5t11.5 -102q7 -19 26.5 -25.5t35.5 4.5q30 16 51.5 45t34.5 63.5t19.5 72t6.5 72.5q0 16 -2.5 30.5t-7 24.5t-11.5 13.5t-16 -3.5q-20 -13 -30 -32t-10 -38t10.5 -34t31.5 -19q2 -2 3.5 -7.5
t-3.5 -5.5q-41 0 -59 21.5t-18 50t16 57.5t43 44zM339 511q-18 -12 -46 -37.5t-57 -56t-55 -63.5t-41 -61q43 19 85.5 50.5t73 64t43 61t-2.5 42.5z" />
    <glyph glyph-name="g" unicode="g" horiz-adv-x="395" 
d="M264 250q37 19 49.5 5t-6.5 -62q-22 -54 -43 -111t-43.5 -112t-48.5 -105t-58 -90q-17 -22 -43.5 -36t-54.5 -19q-34 -3 -55.5 14.5t-31 43.5t-7 55.5t16.5 51.5q29 42 73 51t99 -2q13 23 25 49t26 65q-17 -12 -35.5 -24t-37.5 -20.5t-39.5 -11.5t-42.5 4
q-39 22 -55.5 51.5t-16.5 62t14.5 65t38 61.5t54 51t62.5 33q22 7 50.5 9.5t53.5 -4.5t41.5 -25t14.5 -50zM164 226q11 -9 26 -9.5t27 5.5t17.5 18t-1.5 27q-6 11 -15.5 15.5t-20.5 4t-21.5 -4.5t-17.5 -9q-51 -32 -87.5 -76t-51.5 -104q-5 -20 1 -32.5t18 -17.5t26.5 -3
t28.5 11q41 27 74.5 60t55.5 80q-17 -7 -34.5 3t-24.5 32zM99 -95q-102 19 -137 -45q-10 -18 -8 -38.5t16 -31.5t33 -8.5t33 20.5q10 13 17.5 24t14.5 22.5t14.5 25t16.5 31.5z" />
    <glyph glyph-name="h" unicode="h" horiz-adv-x="487" 
d="M273 518q-13 -19 -31 -45t-38.5 -56t-41 -62.5t-37.5 -63.5t-28 -60t-12 -52q18 18 43 43.5t53.5 47.5t59 34.5t60.5 3.5q26 -8 38 -18.5t8 -36.5q-1 -12 -5 -22.5t-9 -21.5q-20 -44 -36.5 -83t-32.5 -79q4 -13 20 -6.5t39 24t49.5 42.5t51 49t43.5 44.5t27 28.5
q9 -6 9 -12t-3 -11q-9 -15 -27 -37t-41 -47t-50 -50t-53 -46t-50.5 -35.5t-42.5 -18.5q-32 -3 -47 10t-18.5 34t1 45.5t12.5 44.5q23 45 43.5 86.5t43.5 83.5q-24 -3 -52 -23.5t-54.5 -47t-48.5 -54t-34 -45.5q-17 -25 -34 -49l-34 -48q-6 -9 -15 -11.5t-18 0t-16 9.5t-9 18
q-4 22 -2 48t7.5 53t14 53.5t17.5 47.5q20 45 48 96t61 99.5t69.5 90t74.5 68.5q28 18 42.5 20t17 -8t-6 -30t-26.5 -45z" />
    <glyph glyph-name="i" unicode="i" horiz-adv-x="276" 
d="M50 25q8 -6 26.5 4t42 29.5t50.5 45.5t52 51.5t45.5 49t32.5 37.5q2 -8 3.5 -12.5t-0.5 -7.5q-6 -14 -21 -34.5t-34.5 -44t-42.5 -47.5t-45.5 -45.5t-42.5 -38t-33 -23.5q-20 -11 -39.5 -11t-36 9t-28 26t-15.5 40q-5 37 -1 68.5t14.5 59.5t26.5 54.5t35 53.5
q11 15 25.5 25.5t34.5 12.5t31.5 -10.5t5.5 -30.5q-11 -33 -32 -66q-11 -20 -24.5 -44.5t-23.5 -51t-13 -52.5t7 -47zM158 366q-7 0 -15.5 5t-16 12.5t-11.5 16t-2 15.5q5 16 18.5 26.5t29.5 13.5q7 1 16.5 -4t17.5 -13t12.5 -17.5t2.5 -17.5q-4 -14 -20 -26t-32 -11z" />
    <glyph glyph-name="j" unicode="j" horiz-adv-x="182" 
d="M-67 -16q17 42 27 71t18 60t17 70.5t23 104.5q4 15 12 30.5t27 14.5q12 -1 20 -7.5t12.5 -16t6.5 -20.5t1 -20q-14 -78 -32 -157t-39 -148.5t-45.5 -124t-50.5 -84.5q-11 -14 -27.5 -24.5t-36.5 -15t-41.5 -2t-41.5 15.5q-27 17 -37 43t-10 56q9 67 60 103.5t137 50.5z
M-72 -52q-38 -4 -75 -23.5t-59 -46t-22.5 -55.5t34.5 -52q24 -8 43 11t34 49t26 63t19 54zM133 436q4 -16 -5 -32.5t-26 -20.5q-6 -2 -15.5 1t-19 8t-17 12t-8.5 14q-4 17 3.5 30.5t24.5 18.5q6 2 15.5 0t19.5 -6.5t18 -11t10 -13.5z" />
    <glyph glyph-name="k" unicode="k" horiz-adv-x="492" 
d="M318 270q7 -41 -15 -72q-13 -18 -33 -34.5t-43 -30t-47.5 -23.5t-47.5 -15q47 -55 95 -72t94.5 1t90.5 70.5t83 136.5q4 -2 8 -8t3 -8q-5 -17 -17 -45t-30 -59t-43 -59.5t-56 -47.5q-37 -25 -79.5 -28.5t-84.5 9.5t-80.5 39.5t-66.5 61.5q-6 -8 -9.5 -18.5t-6.5 -21.5
t-6 -21t-9 -18q-5 -7 -13.5 -9.5t-17.5 -0.5t-16.5 7.5t-10.5 14.5q-7 25 -5.5 52t7.5 53t15.5 50.5t18.5 45.5q24 52 52 108.5t62.5 109t76.5 98.5t92 78q19 12 32 12.5t18 -8.5q4 -8 3 -13.5t-4 -10.5t-7 -9.5t-8 -8.5q-68 -77 -114.5 -156.5t-88.5 -167.5q21 18 52 39
t62 31t57 0.5t37 -52.5zM271 290q-17 3 -44 -10.5t-52.5 -33.5t-45 -42t-21.5 -36q21 0 50.5 10.5t56 28t43.5 39t13 44.5z" />
    <glyph glyph-name="l" unicode="l" horiz-adv-x="326" 
d="M364 228q-24 -36 -53.5 -73.5t-64 -70.5t-73.5 -59.5t-83 -41.5q-30 -7 -57.5 -2t-48.5 21t-33 42.5t-10 61.5q6 39 20.5 83.5t34 88.5t42.5 84t45 72q16 24 37 50.5t43.5 51t45 45t41.5 31.5q11 5 24 10t26 6q15 0 22 -13t-1 -26q-2 -2 -3.5 -4t-2.5 -4
q-50 -57 -95 -117t-82.5 -122.5t-66 -127.5t-44.5 -132q-5 -30 10 -45.5t38 -12.5q35 9 66 24.5t63 41t68.5 64t83.5 95.5q5 0 7.5 -7.5t0.5 -13.5z" />
    <glyph glyph-name="m" unicode="m" horiz-adv-x="604" 
d="M407 297q12 8 26.5 11.5t27.5 -7.5q10 -10 15 -23t5.5 -26t-2.5 -25t-7 -21q-12 -24 -29 -55.5t-33 -62.5t-26 -56.5t-7 -37.5q26 5 59.5 30.5t67 61t64 75t51.5 71.5q5 -7 4 -19.5t-4 -17.5q-13 -27 -37.5 -61t-54.5 -66.5t-62 -60t-59 -41.5q-35 -19 -72 5
q-18 13 -25.5 31t-7 36.5t6 37.5t13.5 34q14 32 30 62t31 60q-27 -12 -49.5 -32.5t-42 -45.5t-37 -53t-33.5 -53q-8 -13 -16 -26.5t-17 -25.5q-14 -17 -31 -12.5t-24 25.5q-4 9 -5.5 20t0.5 20q7 28 15 55.5t17 54.5q8 22 18 42t19 41q-9 -6 -23.5 -18t-29 -25.5t-27 -26
t-17.5 -19.5q-23 -31 -44.5 -62.5t-43.5 -63.5q-5 -7 -9.5 -13.5t-10.5 -12.5q-6 -7 -16 -5t-15 10q-2 4 -4.5 7.5t-3.5 8.5q-5 17 -5 29q1 35 9.5 72.5t23.5 74t34.5 71t43.5 63.5q8 8 17.5 14t22.5 -2q24 -13 12 -48q-8 -25 -17.5 -48.5t-19.5 -48.5q21 13 40 30.5
t38 34.5t40 32.5t45 24.5q20 7 35 -4.5t15 -31.5q-2 -31 -13.5 -56t-18.5 -52q35 35 71.5 66.5t81.5 53.5z" />
    <glyph glyph-name="n" unicode="n" horiz-adv-x="497" 
d="M278 317q23 0 38 -12t22.5 -29t7.5 -35.5t-6 -31.5q-11 -20 -28.5 -43.5t-34 -47.5t-27.5 -47t-10 -43q7 -8 25 -1.5t42.5 22.5t53.5 38.5t57.5 46.5t53.5 47.5t43 41.5q14 -5 11 -10t-5 -10q-18 -29 -50 -61t-68 -62t-71 -55t-60 -40q-19 -11 -44 -14.5t-48 10.5t-34 34
t-6 44q7 31 20.5 58.5t31 52.5t36 48.5t35.5 46.5q6 7 3 9t-9 1.5t-13.5 -3t-10.5 -4.5q-41 -22 -73.5 -52t-58.5 -65q-9 -12 -24.5 -36t-33 -49t-34.5 -45.5t-29 -24.5q-36 6 -41 40q-4 29 3.5 65t23.5 72.5t37.5 69.5t45.5 57q6 6 12.5 13t14.5 12.5t16.5 6.5t19.5 -6
q9 -6 10 -13t-1.5 -15t-7 -16t-7.5 -15q-6 -16 -13 -31.5t-14 -31.5q23 21 46 40t47 34.5t50 25.5t56 13z" />
    <glyph glyph-name="o" unicode="o" horiz-adv-x="336" 
d="M-57 104q-3 41 7.5 80t32 71.5t52 56.5t68.5 36q16 5 31 6t32 -7q11 -5 23 -7.5t23 -5.5q43 -10 51 -54q6 -46 -2 -89.5t-27 -81t-47 -66.5t-61 -46q-32 -20 -64.5 -18t-58.5 19t-43 45t-17 61zM115 271q-24 -18 -41 -39.5t-31 -47.5q-8 -17 -14.5 -47.5t-4.5 -58.5
t17 -45.5t50 -8.5q30 8 54 28.5t42 47.5t29 57.5t15 59.5q0 9 -1 25t-6 29.5t-14 19.5t-24 -4q-18 -10 -25.5 -20.5t-8.5 -20t4 -17t11 -11.5q-15 -3 -24.5 1t-15 11.5t-8.5 18t-4 22.5z" />
    <glyph glyph-name="p" unicode="p" horiz-adv-x="387" 
d="M106 101q-15 -2 -27 -10t-18 -18.5t-3.5 -20.5t16.5 -17q24 -10 48 9t44.5 49.5t35 62.5t20.5 48q4 10 5 24t-1.5 25.5t-9 18.5t-17.5 4q-44 -8 -82 -43t-68 -80t-50.5 -93t-29.5 -81q-13 -54 -25 -107t-20 -108q-4 -23 -11.5 -37.5t-16.5 -17.5t-18 7t-16 35
q-13 70 0 148.5t41.5 154.5t67 142.5t77.5 111.5q9 9 20.5 18t21.5 12.5t15.5 -2.5t1.5 -28q-3 -8 -4.5 -13.5t-4 -10.5t-5.5 -12t-7 -17q14 10 26 19.5t25 17t27.5 12.5t34.5 7q31 1 61 -16.5t38 -48.5q10 -41 0 -86t-33.5 -85t-57 -69t-69.5 -37q-28 -3 -51 7.5
t-37.5 27.5t-19 38t4.5 38q9 18 26 24t45 -3z" />
    <glyph glyph-name="q" unicode="q" horiz-adv-x="354" 
d="M96 16q-29 -21 -59 -22.5t-54 12.5t-38.5 42t-14.5 66q0 48 19.5 92t51.5 78t75 55t91 24q26 2 49.5 -8t38.5 -35q19 -37 10 -65t-27 -39q10 -18 9.5 -37t-7.5 -39q-26 -72 -55.5 -144t-40.5 -140q7 6 14.5 15.5t14 19t12.5 18t10 11.5q2 -2 4.5 -4t1.5 -4
q-18 -50 -33.5 -99t-37.5 -94q-2 -6 -11.5 -6t-12.5 7q-16 38 -22 75.5t-6 74.5t5.5 73.5t12.5 72.5zM158 232q16 -6 32 -3.5t27.5 10.5t16 21t-2.5 28q-6 8 -19 10t-30 -6q-57 -29 -99.5 -70t-67.5 -101q-6 -17 -8.5 -33t0 -29t10 -20.5t22.5 -7.5q29 2 50 20.5t35 41.5
q17 26 33 53t33 54q-5 2 -15.5 7.5t-16.5 24.5z" />
    <glyph glyph-name="r" unicode="r" horiz-adv-x="389" 
d="M110 256q28 22 56.5 43.5t62.5 29.5q15 4 30 1t27 -11.5t20.5 -21t11.5 -28.5q5 -31 -11 -58.5t-45 -38.5q-13 -4 -26 -1.5t-23 10t-14 19t2 26.5q7 -11 18.5 -15.5t22.5 0.5q8 3 13.5 11.5t8 18.5t1 20.5t-7.5 18.5q-6 7 -15.5 8.5t-19.5 -1t-18.5 -7t-14.5 -8.5
q-39 -26 -63.5 -54.5t-41 -59t-27 -64t-22.5 -69.5q-5 -19 -18 -24.5t-26 -1.5q-37 11 -37 50q-2 69 23 138.5t60 137.5q6 10 18.5 20.5t26.5 16.5t28.5 6t24.5 -9q8 -8 7.5 -16.5t-3.5 -16.5q-3 -7 -8 -16.5t-9.5 -19.5t-8 -19t-3.5 -15z" />
    <glyph glyph-name="s" unicode="s" 
d="M84 156q1 38 2.5 76t9.5 71.5t26 60.5t52 42q24 9 46.5 5t38 -18t22 -35.5t-0.5 -45.5q-5 -16 -12 -29t-22 -21q-14 -7 -23.5 -5.5t-15 8.5t-7.5 17.5t-1 21.5q12 -18 25 -15t21 16t8.5 30.5t-11.5 28.5q-24 19 -44 4q-18 -16 -23.5 -42.5t-4.5 -59t5.5 -69t6.5 -72
t-1.5 -67.5t-18.5 -56q-26 -52 -77 -71q-43 -12 -72 5.5t-41 48.5t-6 68t33 64q16 13 38.5 24.5t46.5 14.5zM84 122q-27 -7 -45.5 -16t-30.5 -32q-5 -9 -6 -20.5t1 -22.5t8.5 -20t17.5 -13q22 -6 34.5 8t18.5 35.5t6 45t-4 35.5z" />
    <glyph glyph-name="t" unicode="t" 
d="M385 231q-1 -12 -0.5 -20t-1.5 -10q-21 -27 -52.5 -61.5t-66.5 -69t-71 -64.5t-66 -46q-14 -8 -28 -14t-30 -9q-48 -9 -81.5 19t-35.5 78q-3 38 10 82.5t35 90t48 89.5t50 80q-18 8 -35 19t-29 24.5t-17 30t1 36.5q6 17 16.5 31.5t36.5 19.5q-23 -37 -13 -69t64 -52
q34 38 63.5 77t60.5 73q7 7 18.5 14.5t24 12t25 4.5t22.5 -7q10 -8 9.5 -19.5t-7.5 -19.5q-26 -30 -55.5 -74t-62.5 -80q24 -1 51 3.5t53 12t50 16.5t41 17q5 0 7.5 -4.5t1 -10.5t-7 -12t-14.5 -9q-55 -26 -106 -39.5t-104 -19.5q-16 -26 -41.5 -70t-49.5 -91.5t-42 -92
t-20 -71.5q-1 -11 3 -20.5t12 -15.5t18.5 -7t22.5 4q41 18 82 47.5t79.5 64t72 69.5t59.5 63z" />
    <glyph glyph-name="u" unicode="u" horiz-adv-x="431" 
d="M459 226q-15 -32 -39.5 -66t-53.5 -65t-61 -57t-62 -43q-45 -17 -75.5 1.5t-36.5 57.5q-13 -11 -23 -21t-21 -19q-42 -36 -98 -12q-26 11 -40.5 30t-16.5 49q-2 28 9 70.5t31.5 83.5t49.5 72.5t64 37.5q10 0 16.5 -7t3.5 -16q-3 -11 -7 -21t-9 -21q-23 -56 -45 -108
t-24 -107q-1 -19 7 -25t20.5 -3t27.5 13.5t28.5 24.5t23.5 29t13 28q9 27 17.5 47.5t17.5 38.5t20.5 36t27.5 39q21 22 46 40q21 7 30 0t10.5 -20.5t-2 -29t-7.5 -23.5q-11 -27 -27 -59t-29 -62.5t-18 -56t6 -38.5q27 10 56 31.5t57.5 48.5t55.5 56.5t48 55.5q4 -7 9 -10z
" />
    <glyph glyph-name="v" unicode="v" horiz-adv-x="317" 
d="M42 35q16 -2 22.5 5.5t14.5 14.5q28 27 57.5 73.5t53.5 99.5q-18 16 -24 41t-0.5 48.5t21.5 39.5t40 14q13 -6 19.5 -17.5t8 -25.5t-1 -28t-7.5 -23q-29 -68 -62.5 -132.5t-84.5 -121.5q-8 -10 -17.5 -19t-19.5 -17q-23 -16 -50 -9.5t-42 30.5q-14 30 -16 71.5t5 84.5
t20.5 83t31.5 68q11 17 26 30.5t36 20.5q14 5 25 -2.5t9 -21.5q-6 -35 -20 -66q-8 -19 -18.5 -52.5t-19 -69.5t-12 -68.5t4.5 -50.5zM198 256q20 40 26 56.5t-8 27.5q-21 -14 -24 -38.5t6 -45.5z" />
    <glyph glyph-name="w" unicode="w" horiz-adv-x="490" 
d="M110 47q-19 -17 -36 -33t-39 -24q-23 -9 -43 -1.5t-32 30.5q-7 12 -11.5 25t-6.5 26q-7 77 11.5 144.5t66.5 124.5q9 11 21 19t24 15q7 4 14.5 2.5t13.5 -6t9.5 -11.5t2.5 -15q-1 -11 -4.5 -22t-7.5 -22q-9 -24 -20.5 -45.5t-21.5 -46.5q-8 -21 -14 -41t-10 -41t-5 -43.5
t2 -48.5q20 4 36.5 18t28.5 32t19 38.5t10 39.5q5 28 15 57.5t24.5 55t33 46t39.5 31.5q18 7 25.5 2t9 -17t-2 -27t-8.5 -26q-13 -33 -25.5 -66.5t-24.5 -67.5q-17 -62 -6 -121q37 13 66 40.5t50.5 61.5t35.5 70.5t21 67.5q2 15 -0.5 29.5t-10 23.5t-19 10.5t-26.5 -10.5
q5 17 19.5 25.5t29.5 4.5q17 -4 28.5 -16.5t13.5 -30.5q2 -9 2.5 -18t-1.5 -17q-4 -37 -18 -76.5t-36.5 -76t-53 -68.5t-67.5 -55q-24 -16 -43 -19t-33.5 4.5t-25.5 25t-20 43.5z" />
    <glyph glyph-name="x" unicode="x" horiz-adv-x="435" 
d="M191 286q22 12 49.5 25t53.5 23.5t48 17.5t33 8q3 -9 -3.5 -18t-11.5 -13q-13 -9 -37.5 -20.5t-50.5 -25t-49 -29.5t-32 -34q-2 -14 -2.5 -36.5t0.5 -49t3 -53t6.5 -48.5t11 -35.5t16.5 -12.5q18 0 40.5 13.5t45.5 35t45 48t40 53.5t30.5 52.5t15.5 43.5q1 -1 3.5 -4.5
t4.5 -9t3.5 -11t-0.5 -9.5q-49 -114 -102.5 -173.5t-101.5 -76t-84.5 5t-51.5 69.5q-7 26 -7 61t-2 69q-47 -38 -74.5 -93.5t-34.5 -139.5q-5 9 -11 15t-7 11q-3 49 7 89.5t28.5 75t44 64.5t54.5 57q7 29 7.5 50t-0.5 54q-2 18 -10 24.5t-19.5 6t-23 -5.5t-20.5 -9
q10 16 24 24t28 10.5t27 0.5t23 -8q20 -12 29 -37t14 -55z" />
    <glyph glyph-name="y" unicode="y" horiz-adv-x="373" 
d="M116 -54q6 16 9 26.5t5 20.5t3.5 21.5t3.5 30.5q-17 -11 -32 -23.5t-32 -20.5q-17 -9 -35.5 -9t-34.5 7.5t-28 22.5t-16 35q-8 39 -0.5 79t24 77.5t40 70t48.5 55.5q2 3 5.5 5.5t7.5 5.5q35 26 46 10q9 -12 5.5 -22.5t-8.5 -20.5q-32 -63 -58 -123t-36 -127
q-2 -18 10.5 -25.5t26.5 1.5q34 22 62 48t39 69q10 42 29 78.5t45 68.5q4 5 13 14.5t19.5 18t21 12.5t18.5 -1q7 -5 8.5 -13t1 -16t-3.5 -16t-5 -14q-5 -15 -11.5 -29.5t-12.5 -29.5q-17 -44 -31 -88.5t-22 -92.5q-6 -33 -18.5 -74.5t-31 -83t-42.5 -79t-53.5 -61
t-63.5 -29.5t-73 15q-23 13 -34 37.5t-10.5 52.5t13.5 54t39 41q32 22 69.5 27t79.5 -6zM108 -86q-35 5 -65.5 3.5t-53.5 -18.5q-20 -14 -31.5 -33.5t-7.5 -45.5q4 -24 23 -36t41 -5q17 5 28 17q19 17 38 48.5t28 69.5z" />
    <glyph glyph-name="z" unicode="z" horiz-adv-x="323" 
d="M99 64q7 -6 10.5 -9.5t7.5 -5.5q42 -28 52 -66.5t0 -78t-32 -76.5t-43 -62q-12 -14 -33 -26.5t-44 -18t-45 1t-36 31.5q-14 39 -5 71.5t32.5 55.5t57 35t69.5 10q13 14 16.5 32.5t-1.5 34t-17 25t-30 4.5q-8 -2 -16 -5.5t-15 -8.5q-10 -5 -18.5 -8t-18.5 5
q-10 7 -11.5 20.5t5.5 28.5q12 25 29 45t38 38q32 29 61 57t58 57q-16 -13 -42.5 -24.5t-54.5 -14.5t-53.5 5.5t-38.5 37.5q-5 14 -5 26.5t14 21.5q13 -33 31 -46t37.5 -13t41 9t42.5 20t41.5 21.5t37.5 13.5q19 2 29.5 -9.5t8.5 -31.5q-1 -17 -8.5 -30t-17.5 -25
q-11 -12 -28.5 -32t-37 -41t-38 -41.5t-30.5 -33.5zM77 -101q-27 4 -54 -11.5t-45 -38t-21 -45.5t18 -33q34 20 63.5 51.5t38.5 76.5z" />
    <glyph glyph-name="B" unicode="B" horiz-adv-x="739" 
d="M175 433q-23 2 -39 18.5t-19 47.5q-6 58 17.5 101.5t64 73.5t90.5 48.5t97 26.5q43 6 86 -3t76 -31t51 -57t10 -81q-12 -47 -40 -79.5t-63 -61.5q33 -11 61 -31t47.5 -47t29.5 -58.5t8 -64.5q-7 -71 -44.5 -127.5t-95 -97t-129 -64.5t-145.5 -30q-41 -3 -87.5 4.5t-82 28
t-52.5 55.5t1 86q10 26 39 50t69 38q8 26 27 78.5t47.5 116t65 130.5t78.5 122q9 14 21 26t25 23q22 16 43 -14q-9 -26 -20.5 -51t-25.5 -51q-51 -96 -97 -185t-76 -183q48 -10 88.5 -27.5t71.5 -52.5q-5 -10 -10 -9.5t-11 2.5q-39 20 -79.5 33t-79.5 5q-12 -31 -21 -60
t-22 -54q-5 -7 -13.5 -13t-17.5 -7.5t-16 3t-8 17.5q-1 12 1.5 24.5t5.5 24.5t6.5 24t4.5 22q-21 -8 -36.5 -27t-17.5 -37q-6 -37 14.5 -57t51.5 -28.5t63.5 -9t50.5 2.5q63 10 120 33.5t100.5 60t68.5 84.5t24 106q-2 49 -27.5 82.5t-73.5 32.5q-23 0 -46 -5.5t-46 -10.5
l-16 -4t-17 6q-7 6 -4 18.5t16 20.5q34 18 66 36.5t57 40.5t42 49t22 62q3 23 -2 44.5t-17.5 38t-31 27t-42.5 12.5q-34 2 -73.5 -5.5t-76.5 -24t-68 -41t-48 -55t-17 -66.5t26 -75z" />
    <glyph glyph-name="C" unicode="C" horiz-adv-x="631" 
d="M398 394q23 0 47 17t45 41t38 50t26 46q5 12 12.5 33.5t9 41.5t-7 34t-34.5 10q-60 -10 -103.5 -41.5t-83.5 -70.5q-63 -60 -116.5 -127t-91.5 -148q-10 -22 -20 -51.5t-16 -62t-6 -64.5t10 -59.5t31 -47t58 -25.5q53 -6 113 18.5t117.5 64.5t108.5 86.5t87 85.5
q9 9 17 9t12 -4.5t3.5 -12.5t-8.5 -15q-37 -40 -84 -84t-99 -83.5t-106 -70.5t-104 -44q-30 -8 -62.5 -5t-62.5 15t-56 32.5t-44 48.5q-24 46 -26.5 99t8.5 104.5t31.5 99.5t43.5 84q45 75 102 139t128 115q47 34 99.5 56.5t108.5 18.5q45 -5 67.5 -35t17.5 -79
q-5 -36 -22.5 -77.5t-44.5 -78.5t-61.5 -63.5t-73.5 -31.5q-19 -2 -35 10t-16 31q-1 39 14.5 70t47.5 51q8 4 17.5 4t15.5 -5q2 -3 4 -8t0 -8q-8 -14 -16.5 -27.5t-16.5 -27t-14.5 -28t-8.5 -30.5z" />
    <glyph glyph-name="D" unicode="D" horiz-adv-x="784" 
d="M284 226q18 0 36.5 -1t36 -5t34.5 -13.5t32 -27.5q-42 9 -84.5 5t-80.5 -16q-8 -22 -16.5 -45.5t-18.5 -46.5t-23 -45.5t-31 -41.5q-15 11 -19.5 31t-4.5 42t3 43t4 34q-35 -15 -62.5 -43.5t-37 -59t3.5 -58.5t59 -41q36 -3 77 4.5t73 21.5q53 26 105 62.5t97 81.5
t80.5 97t56.5 109t24 118.5t-17 124.5q-24 52 -62.5 78.5t-83.5 33t-91 -4.5t-84 -33q-24 -12 -49 -34t-43 -49.5t-26 -58t3 -60.5q-14 10 -21 22.5t-9.5 26t0 27t7.5 26.5q22 52 57 88.5t78.5 60t93.5 33t102 7.5q87 -11 147 -63t82 -149q13 -57 8.5 -113.5t-22.5 -109.5
t-47 -100.5t-63 -86.5q-33 -38 -69 -73t-75.5 -64t-84 -50.5t-95.5 -33.5q-60 -17 -117 -4.5t-94.5 44.5t-46 79t27.5 99q17 25 38 43.5t40 31t33.5 19t17.5 8.5q9 31 24 73t32.5 85.5t35 84.5t31.5 70q17 35 38.5 66t47.5 60q5 4 12 6.5t13 1.5q11 -2 15.5 -10.5t5.5 -17.5
q2 -22 -2.5 -40.5t-11.5 -37.5q-26 -66 -51 -131t-51 -131q-4 -11 -9.5 -24t-8.5 -25z" />
    <glyph glyph-name="E" unicode="E" horiz-adv-x="701" 
d="M235 371q-54 47 -55 100.5t39 105.5q52 67 122 102.5t161 36.5q24 1 46.5 -5t44.5 -20q30 -20 38.5 -47t-7.5 -56q-22 -41 -61 -57q-25 -5 -26 0.5t8 15t22 19.5t16 15q15 24 5 36t-30.5 16t-44.5 1.5t-36 -9.5q-91 -32 -161 -96q-15 -14 -27 -31.5t-20 -38.5
q-9 -28 4 -49t44 -23q21 -2 41.5 -0.5t40.5 3.5q7 1 13.5 2t12.5 3q6 -10 4 -15t-8 -7q-14 -6 -29 -11.5t-29 -10.5q-74 -25 -130.5 -69t-93.5 -113q-18 -32 -23.5 -67.5t-1.5 -73.5q5 -35 23 -53.5t43.5 -26t55.5 -6t59.5 8t56 16t44.5 16.5q87 35 165 95t147 149
q3 3 9 5.5t11.5 3t8.5 -2t0 -8.5q-64 -99 -149.5 -170.5t-180.5 -113.5q-44 -19 -97 -34t-106.5 -16t-101 18.5t-80.5 70.5q-22 36 -25 81.5t11 88.5q18 44 40.5 77t51 59t62 46t73.5 39z" />
    <glyph glyph-name="F" unicode="F" horiz-adv-x="592" 
d="M17 -132q26 78 55 155.5t58 158.5h-63q0 8 10 15t22.5 12.5t24.5 9t17 4.5q20 36 41 74t42.5 74t43.5 67.5t44 54.5h-66.5t-55.5 -2t-49 -7.5t-46 -16.5q-24 -15 -37 -28.5t-19.5 -27t-9.5 -27t-8 -27.5q-3 50 11.5 82t40.5 50t60 25.5t71 9.5t72.5 2t64.5 2
q40 41 90.5 80t106.5 66t115 39t116 -1q35 -9 57.5 -29t31.5 -55q5 -42 -14.5 -69t-55.5 -43.5t-84.5 -24.5t-100 -11t-102 -3.5t-91.5 -2.5q-24 -25 -46 -54t-41 -59t-34.5 -58.5t-25.5 -52.5q58 3 118.5 9t120.5 8q-11 -32 -27.5 -50t-50.5 -18q-42 0 -94.5 -4.5
t-94.5 -6.5q-11 -20 -22 -48t-22.5 -58.5t-23 -61.5t-22.5 -55q-13 -32 -36.5 -55.5t-50.5 -42.5q-8 -6 -18 -8t-23 9zM437 515q31 -3 66.5 -2t71.5 3.5t70 6.5t61 9q16 3 37 10t37.5 18t25 26.5t1.5 36.5q-9 18 -24 27t-32 11t-34.5 0t-30.5 -6q-32 -9 -65.5 -23t-66 -32
t-62.5 -39.5t-55 -45.5z" />
    <glyph glyph-name="G" unicode="G" horiz-adv-x="648" 
d="M356 -53q26 48 47 96t32 109q-30 -27 -62.5 -55t-67.5 -51t-74 -37t-82 -12q-31 1 -58.5 12.5t-48.5 31t-34 46.5t-15 59q-3 53 8.5 99.5t32.5 89t48.5 82t55.5 77.5q-48 1 -90 -17t-67 -39q-10 8 -6.5 13t6.5 10q19 18 43.5 30t51.5 20.5t54 13.5t51 9q34 31 71 60
t77 52t83.5 38t90.5 17q33 0 55 -15t32 -36.5t6.5 -46.5t-22.5 -46q-27 -25 -66 -38t-82 -18.5t-85.5 -5.5h-75.5q-39 -48 -73.5 -93t-59.5 -89.5t-37.5 -91t-7.5 -98.5q9 -41 31.5 -59t53 -18.5t66 13.5t71.5 36t69.5 49.5t60.5 53.5q9 21 11.5 47.5t17.5 52.5q5 7 18 12
t22 2q11 -3 16 -11t5 -17q-2 -72 -8 -138t-29 -131q-27 -79 -71.5 -143t-110.5 -112q-18 -14 -38 -23t-44 -14q-22 -4 -42.5 3.5t-36.5 22t-25 35.5t-8 44q2 42 24.5 74t57 49t76 17t82.5 -21zM302 534q12 -4 37 -4t55 3t61 10t54 18.5t35 27.5t4 37q-6 15 -25 15.5
t-41.5 -6t-43 -16t-28.5 -13.5q-12 -7 -24.5 -13t-25.5 -13.5t-27.5 -18.5t-30.5 -27zM339 -84q-23 16 -51 19t-53.5 -4.5t-45.5 -25t-27 -42.5q-6 -20 -3.5 -38.5t10.5 -31t21 -17.5t30 3q19 10 37 26t33.5 35t28 38.5t20.5 37.5z" />
    <glyph glyph-name="H" unicode="H" horiz-adv-x="870" 
d="M596 -14q8 -3 28.5 10.5t48 37t58.5 53.5t61 61t56 59.5t42 48.5q-1 -11 -0.5 -20.5t-1.5 -12.5q-20 -32 -54 -74t-73.5 -82.5t-79 -74.5t-70.5 -50q-22 -12 -42.5 -12t-37 9.5t-27 27.5t-11.5 44q-2 20 1.5 40t8.5 40q3 12 9 32.5t13 42.5t13.5 42.5t10.5 32.5
q-24 -2 -51 -5t-56.5 -4.5t-59.5 0.5t-58 10q-19 -33 -39 -74t-42.5 -81.5t-48 -76.5t-55.5 -58q-30 -20 -60 -14.5t-49.5 25t-24 47.5t14.5 54q-1 -10 2 -22.5t9.5 -22t17.5 -13t26 5.5q27 14 49.5 45.5t42.5 69t37.5 76t32.5 67.5q-21 13 -36 35.5t-10 51.5q3 6 8 0.5
t13.5 -14.5t20 -18t28.5 -10q38 70 77.5 152t74.5 160q-33 -5 -67.5 -7.5t-67.5 -8t-62.5 -16t-53.5 -30.5q-15 -14 -20.5 -28t-5 -28t6.5 -27.5t15 -26.5q-20 3 -32 16t-16.5 30.5t-0.5 36.5t18 36q19 22 45 38t55.5 26.5t59.5 16.5t59 8q45 5 86 17.5t77 36.5q13 8 21.5 0
t6.5 -22q-18 -48 -41 -101.5t-48.5 -107t-50.5 -103.5t-47 -91q38 -12 101 -3.5t131 29.5q46 90 89 174.5t97 162.5q10 15 21.5 30t25.5 27q7 4 17 2t19 -8t14 -14.5t2 -17.5q-5 -12 -10.5 -23.5t-11.5 -22.5q-49 -78 -90 -153.5t-71 -153.5q11 -2 23 -0.5t24 -0.5
q-3 -5 -4.5 -10t-4.5 -9q-19 -21 -36 -28.5t-34 -18.5q-6 -18 -17 -48t-22 -63t-20 -64t-12 -50q-2 -11 -1 -21t16 -22z" />
    <glyph glyph-name="I" unicode="I" horiz-adv-x="373" 
d="M18 59q3 -11 7 -23.5t9 -22t10 -13.5t11 2q62 147 116.5 297t102.5 302q1 11 2.5 22t-0.5 20t-8.5 13.5t-20.5 1.5q-50 -8 -96 -30.5t-84 -54.5q-27 -18 -38.5 -49.5t-0.5 -65.5q-15 6 -22.5 20.5t-8.5 33t5 37.5t18 34q25 25 51.5 44.5t54.5 34.5t58 27t64 23
q32 10 58 5t43 -22t23 -44.5t-1 -62.5q-50 -166 -113.5 -325t-133.5 -315q-14 -26 -30 -30.5t-30.5 4t-27 26.5t-20 39t-7.5 41t9 31z" />
    <glyph glyph-name="J" unicode="J" horiz-adv-x="735" 
d="M418 461q-32 -5 -45.5 9.5t-19.5 35.5q-12 39 7 74q16 29 39 52.5t49 41t55 30t57 19.5q48 6 77 -17.5t34 -72.5q3 -67 -5.5 -139.5t-27.5 -145.5t-47.5 -144.5t-63.5 -136.5t-76.5 -120.5t-87.5 -97.5q-40 -33 -86.5 -46t-92 -6t-85.5 34t-67 73q-23 44 -27.5 85.5
t6.5 78.5t37.5 67t65.5 51q27 10 52.5 8.5t45.5 -14t33.5 -34t17.5 -51.5q9 -80 -27 -146q-2 -4 -17 -7.5t-24 -7.5q8 28 13 61t4 63q0 16 -5 34t-14 32t-23 21t-33 2q-39 -11 -63 -41t-30 -68t6.5 -79t47.5 -73q40 -31 87.5 -31.5t84.5 27.5q40 31 78 79.5t71 109.5
t61.5 130.5t49.5 143.5t35 149t18 146q0 17 -10 24.5t-27 5.5q-48 -11 -83 -36.5t-66 -59.5q-8 -14 -12.5 -29t-2.5 -32t9 -30.5t27 -21.5z" />
    <glyph glyph-name="K" unicode="K" horiz-adv-x="790" 
d="M178 454q-29 8 -41 27t-11.5 41.5t10 45t23.5 36.5q16 19 38 37.5t48 33.5t55 25.5t60 14.5q55 7 91 -21t42 -80q4 -70 -11 -129t-34 -119q54 24 102.5 59.5t90.5 78t76.5 91.5t61.5 102q7 8 18 12.5t21 4t16.5 -7t5.5 -20.5q-20 -59 -62.5 -117.5t-96.5 -109.5t-114 -91
t-115 -63q31 -100 66.5 -191t88.5 -178q17 -28 41 -30.5t37 24.5q5 15 5 30t-1 28t-2 23.5t1 16.5q17 -36 21.5 -71.5t-6.5 -58.5q-13 -34 -45 -38q-32 -5 -60.5 11.5t-51.5 40.5q-28 30 -51.5 69.5t-43.5 82t-37 85t-32 77.5q-14 -24 -30 -49.5t-34 -51t-36.5 -50
t-36.5 -44.5q-12 -13 -25 -27t-27 -26.5t-29.5 -22.5t-32.5 -15q-75 -19 -117 61q-5 11 -7.5 23t-5.5 23q12 3 19 -10.5t17 -26.5t25.5 -15.5t43.5 23.5q29 22 60 61.5t60 84t53.5 89t40.5 77.5q18 40 35 77.5t30.5 73.5t21.5 71t7 71q-2 23 -11.5 37t-32.5 15t-52.5 -7.5
t-58 -24t-53.5 -37t-39 -46.5t-13 -52t24 -54z" />
    <glyph glyph-name="L" unicode="L" horiz-adv-x="953" 
d="M312 20q-20 -26 -46.5 -54t-58 -48t-67.5 -27t-73 10q-36 22 -48 48.5t-7 52.5t24.5 49.5t47 40t60 24t62.5 1.5q14 -2 27.5 -5.5t31.5 -8.5q46 80 80.5 169.5t67.5 172t70.5 149.5t90.5 103q17 16 46.5 19t53.5 -3q42 -10 57 -45.5t11 -76.5t-23 -76.5t-46 -45.5
q-7 -6 -14.5 -4.5t-12 6.5t-4 13t10.5 14q15 6 27.5 23t19.5 38t9 42.5t-2.5 38t-16.5 24t-32 -0.5q-40 -36 -68 -81t-49.5 -95.5t-39.5 -105t-38.5 -109t-46 -106.5t-62.5 -98q44 -36 94.5 -70t103.5 -57q74 -29 130.5 -19t104.5 68q17 24 18.5 46t-8.5 39.5t-31 27.5
t-49 9q26 21 57 14t52.5 -32.5t28 -64t-15.5 -80.5q-32 -59 -78 -86t-97.5 -28.5t-106.5 19.5t-105 58q-38 29 -71 56.5t-69 51.5zM228 59q-27 5 -52.5 8.5t-48.5 -0.5t-41.5 -17t-30.5 -40q-4 -15 1.5 -25.5t15.5 -16.5t23 -7.5t24 2.5q35 11 61 34.5t48 61.5z" />
    <glyph glyph-name="M" unicode="M" horiz-adv-x="743" 
d="M398 614q2 4 5.5 6.5t7.5 6.5q17 14 29.5 16.5t23.5 -8.5q15 -14 16 -30.5t-3 -32.5q-17 -64 -36 -131t-37 -133q31 36 60.5 71.5t60 69t64.5 65.5t75 60q15 13 29 22t26.5 11.5t24 -2.5t22.5 -20q16 -21 14.5 -42.5t-9.5 -40.5q-21 -43 -43 -86q-34 -65 -71 -132.5
t-70.5 -136.5t-60 -140.5t-38.5 -145.5q9 -23 29 -15.5t45 30t50 52t44 50.5q9 -8 8.5 -18t-4.5 -18q-26 -43 -60.5 -79.5t-75.5 -60.5q-32 -14 -60.5 3t-39.5 58q-7 33 -6 64t7 60t15 57t19 54q22 61 51 119t61 113.5t64 108t60 103.5q-54 -36 -98 -79.5t-82 -91.5
t-72.5 -99.5t-70.5 -102.5q-13 -20 -25.5 -40t-24.5 -40q-6 -8 -12.5 -17t-13.5 -18q-5 -8 -12.5 -12t-17.5 2q-11 5 -12.5 15t-1.5 21q-1 11 -1 23.5t2 23.5l16 72t19 69q23 67 46 133.5t42 126.5q-36 -36 -71.5 -90t-69.5 -114t-65 -119.5t-56 -106t-43.5 -73t-27.5 -21.5
q-23 8 -29.5 25t-4.5 37q-2 27 5.5 75.5t26.5 100.5q15 51 38.5 102t45.5 103.5t37.5 105t14.5 106.5q-3 17 -18 21t-35 -3.5t-42.5 -24.5t-41.5 -42.5t-31.5 -58.5t-12.5 -71q-5 6 -9.5 11t-6.5 11q-8 22 -7.5 43.5t10.5 41.5q29 67 78.5 100t115.5 37q17 1 32.5 -8
t27 -24.5t18 -36t5.5 -42.5q-3 -49 -17 -95t-32.5 -89.5t-38 -84.5t-32.5 -81q24 33 54 79.5t63.5 96t69.5 96.5t71 79z" />
    <glyph glyph-name="N" unicode="N" horiz-adv-x="578" 
d="M459 647q27 5 45.5 -11t26.5 -48q9 -33 6 -65t-13 -61q-14 -41 -28 -80t-28 -79q-35 -89 -63.5 -178t-48.5 -183q-8 -39 -1.5 -54.5t21 -15.5t34.5 12t39 29.5t34.5 37.5t21.5 35q-2 -15 -1 -23t-1 -13q-9 -18 -23.5 -41.5t-32.5 -43.5t-39.5 -34t-44.5 -12q-53 3 -79 57
q-13 29 -15.5 57.5t-0.5 57.5q4 44 12.5 86t21.5 83q15 57 36.5 110t45 105.5t46 105t38.5 107.5q-16 19 -47 -2t-69 -68t-78.5 -112.5t-75.5 -134.5t-60.5 -135t-32.5 -114q-8 -16 -16.5 -30.5t-25.5 -20.5q-23 13 -33 36t-12 49t1.5 51.5t6.5 43.5q28 124 68 233t81 217
q5 15 11 30t2 37q-26 2 -49.5 -7t-44.5 -24t-39 -33.5t-31 -36.5q-16 -23 -21.5 -49t8.5 -58q1 -2 -4 -13q-20 11 -27 29t-5 39q5 32 21 60q27 50 68 81t89 52q6 3 13 3.5t15 0.5q22 1 34.5 -8.5t22.5 -34.5q11 -28 10.5 -54t-8.5 -52q-12 -38 -23.5 -78t-22.5 -79
q-4 -14 -7 -28l-6 -28q23 36 52.5 84.5t64.5 93t75.5 78t85.5 41.5z" />
    <glyph glyph-name="O" unicode="O" horiz-adv-x="612" 
d="M238 681q35 25 77 36.5t87 11.5q59 -8 94 -35t52 -66t18.5 -86.5t-5 -95.5t-19 -93t-24.5 -79q-20 -52 -44.5 -102t-56 -93.5t-71.5 -77.5t-91 -54q-36 -15 -73 -14t-69.5 17t-58 44.5t-38.5 68.5q-29 93 -22 184.5t39.5 173t86 149t118.5 111.5zM393 662
q-11 -5 -21 -8.5t-20 -9.5q-33 -17 -59.5 -42.5t-48.5 -55.5q-51 -63 -83 -135t-49 -153q-20 -86 -9 -174q7 -48 36 -71.5t77 -17.5q32 4 62.5 23t55.5 42t41 43t20 26q17 24 35.5 58t34.5 73.5t29.5 83t21 86.5t8.5 83.5t-7 74.5q-23 37 -51.5 38t-56.5 -17t-53 -47
t-41 -53q-2 3 -5.5 5.5t-2.5 4.5q10 43 30.5 74t55.5 69z" />
    <glyph glyph-name="P" unicode="P" horiz-adv-x="534" 
d="M302 647q2 -15 3 -24t-1 -15q-26 -44 -46.5 -78.5t-36.5 -66t-28 -63t-21 -67.5q-8 -22 9 -39q39 -32 77 -35t71.5 14t62 49.5t48.5 70.5t30.5 78t8.5 72q-3 30 -16.5 55t-39.5 45q-23 17 -46.5 26t-49.5 13q-31 2 -65.5 -2.5t-68 -15t-63.5 -28t-50.5 -41t-29.5 -53
t-1 -65.5q3 -12 0 -14t-8.5 2.5t-11 13t-6.5 17.5q-7 44 7 80.5t42 64t67 46t82.5 28t88 9.5t83.5 -10q40 -8 73 -29t56 -51.5t34.5 -68t8.5 -78.5q0 -48 -16 -97t-45 -90t-68 -70t-84.5 -37.5t-95 7.5t-99.5 66q-31 -93 -43 -184.5t-21 -176.5q-3 -9 -11 -12.5t-18 -2
t-19.5 7.5t-14.5 15q-6 9 -10 19t-5 20q-2 26 -2 52t2 52q8 78 28.5 165.5t55.5 169.5t85 150t118 106z" />
    <glyph glyph-name="Q" unicode="Q" horiz-adv-x="679" 
d="M491 664q23 3 44.5 -4.5t38 -23t27 -36t11.5 -42.5q8 -61 -1 -127t-32 -131.5t-58 -127t-80 -111.5t-98 -86t-112 -50q-2 -13 -1 -25.5t5.5 -23t14 -17.5t25.5 -8q26 -2 49.5 3.5t46.5 11.5q45 10 90.5 9t91.5 -16q17 -5 33 -14t27 -32q-46 14 -89.5 19.5t-87.5 -7.5
q-46 -11 -91.5 -22t-92.5 -8q-30 4 -47.5 18t-27.5 34t-15 43t-9 44q-70 30 -113.5 93.5t-48.5 145.5q-8 81 12 160t61 148.5t100.5 126.5t130.5 94q20 10 42 17t47 6q32 -1 60.5 -12t46.5 -49zM459 657q-6 5 -9 8.5t-7 5.5q-21 5 -43.5 -1t-43.5 -18t-39 -27t-30 -27
q-80 -81 -128.5 -180.5t-57.5 -222.5q-3 -45 11.5 -83t40.5 -73q5 -7 13.5 -11.5t16.5 -11.5q26 35 58 65.5t73 47.5q14 6 20.5 -4t1.5 -21q-13 -27 -33.5 -49.5t-37.5 -46.5q58 18 106 56.5t84.5 89.5t62 108.5t39.5 112.5q5 19 9.5 42.5t6.5 47.5t0 47t-9 43
q-15 31 -34 40t-39 4t-40.5 -21t-40 -35.5t-36.5 -38t-29 -29.5l-8 8t-2 5q27 108 124 169z" />
    <glyph glyph-name="R" unicode="R" horiz-adv-x="645" 
d="M88 425q-29 23 -36 47.5t-4 49.5q6 39 25 71t46.5 56t61 41t68.5 27q40 11 79.5 12t77.5 -8q45 -11 80 -38t55.5 -65t25.5 -84t-8 -94q-20 -65 -55.5 -119t-82 -93t-102.5 -61.5t-119 -25.5q7 -37 26 -72t46 -63t60 -46t69 -21q39 -6 66.5 10t41.5 44.5t12.5 64.5
t-21.5 70q16 -1 25 -13t16 -25q15 -36 12.5 -73.5t-19 -68.5t-45.5 -52.5t-66 -24.5q-47 -3 -90 11.5t-79 42t-64 65.5t-43 83l-6.5 19.5t-8.5 26.5q-17 -29 -22.5 -61.5t-14.5 -65.5q-8 -31 -25 -56q-8 -14 -23 -11t-23 19q-5 11 -10.5 24.5t-5.5 25.5q-1 23 0.5 47t6.5 47
q17 92 46 176.5t75 159.5q35 55 76.5 100.5t86.5 86.5q10 9 16.5 13t11.5 4.5t11 -2t16 -6.5q-27 -50 -54 -96.5t-51 -96.5q-23 -47 -48.5 -94t-38.5 -103q35 -14 73.5 -6.5t75.5 30.5t70 58.5t56.5 77t35.5 85.5t7 84t-30 73t-75 53q-38 10 -77.5 5.5t-76 -20.5t-67 -42
t-50 -58.5t-25 -69.5t8.5 -75z" />
    <glyph glyph-name="S" unicode="S" horiz-adv-x="633" 
d="M479 509q27 -5 46 0t33 16t23.5 27t17.5 34q15 36 -4 62t-59 26q-45 0 -78.5 -26t-43.5 -68q-7 -32 -4.5 -61.5t10.5 -58t20 -57t24 -57.5q15 -39 26 -77t14.5 -75t-2.5 -73t-24 -71q-21 -46 -56.5 -78.5t-78.5 -50t-90 -18.5t-91 16.5t-82.5 54.5t-64.5 96
q-16 37 -20 79t3 82.5t25.5 74.5t47.5 54q20 16 46 20t52.5 -2t49.5 -22.5t37 -41.5q17 -30 20.5 -53t-1.5 -56q-1 -3 -5 -6t-9 -8q3 43 -19 79.5t-54.5 53.5t-67 9.5t-56.5 -51.5q-24 -53 -18.5 -108t33 -99t72.5 -70t101 -21q53 6 90.5 36t56 74.5t17 97.5t-25.5 106
q-51 93 -67 171t1 135.5t65.5 91.5t127.5 39q30 1 57.5 -11t47.5 -41q18 -30 18.5 -59.5t-10.5 -55t-31.5 -45.5t-45.5 -31q-17 -8 -36.5 -6t-37.5 23z" />
    <glyph glyph-name="T" unicode="T" horiz-adv-x="510" 
d="M151 723q-23 -13 -46.5 -26t-45 -27t-39 -31.5t-29.5 -39.5q-5 -10 -0.5 -20.5t15.5 -12.5q27 -7 53 -6.5t52 6.5q89 20 173 41.5t170 41.5q28 5 55.5 9t54.5 5t52.5 -2.5t49.5 -13.5q11 -5 14.5 -20.5t2.5 -29.5q-13 -23 -35.5 -35.5t-49.5 -18t-55.5 -5.5t-53.5 1.5
t-44.5 3t-27.5 -0.5q-28 -34 -64 -88t-74 -117t-73.5 -128t-61 -121t-37 -95.5t-1.5 -51.5q32 -11 86.5 5t115.5 54.5t121 96t103 131.5q-2 -8 -2 -19.5t-2 -13.5q-10 -35 -43 -79t-79 -86t-100 -77t-106.5 -52t-98.5 -11.5t-76 44.5q-14 28 -10 71.5t21.5 96t45.5 110.5
t62 116t70.5 112.5t71.5 99.5q-54 -10 -94.5 -14.5t-81.5 -7.5q-35 -6 -67.5 0.5t-54.5 21.5t-29.5 37.5t7.5 49.5q10 19 30 36.5t43.5 31.5t47.5 23t42 12q4 1 8.5 -1.5t13.5 -5.5zM625 594q-15 2 -38 2t-47.5 -1.5t-48 -5t-40.5 -7.5q19 -6 47 -6t55 3t47.5 7.5t24.5 7.5z
" />
    <glyph glyph-name="U" unicode="U" horiz-adv-x="671" 
d="M427 7q14 -12 35 -5t45.5 26.5t50 47.5t48.5 57.5t41 57.5t27 46q4 9 11 13t12 2.5t6.5 -8t-4.5 -18.5q-17 -42 -42.5 -81.5t-54.5 -74t-59 -63.5t-57 -50q-28 -19 -54.5 -22.5t-48.5 6.5t-37 33.5t-19 58.5q-15 -13 -35 -32t-44 -36.5t-50 -30.5t-51 -15t-48.5 11.5
t-41.5 47.5q-20 48 -17 101.5t21 110.5t46.5 116t58.5 117.5t58 116t45 111.5q-14 18 -45 17.5t-67 -15t-71 -40.5t-58 -57.5t-27.5 -66.5t20.5 -68q-22 3 -33.5 19.5t-15.5 38t-0.5 43t11.5 34.5q13 28 39 54.5t60.5 48.5t74 37t80.5 20q48 5 76 -25t23 -84
q-12 -80 -43 -150.5t-65 -140t-63 -141t-37 -152.5q4 -29 17.5 -39t31.5 -7t39.5 16.5t41.5 31t37.5 36.5t27.5 34q15 66 34 137t44 140t58 132.5t76 114.5q7 8 16.5 13.5t18.5 5.5t15 -6t5 -21q-4 -19 -9 -37t-13 -35q-35 -87 -66 -174t-58 -177q-6 -20 -13 -44
t-11.5 -48.5t-3.5 -47.5t11 -41z" />
    <glyph glyph-name="V" unicode="V" horiz-adv-x="620" 
d="M243 671q-19 7 -47 3.5t-58 -16t-58 -33.5t-47 -48.5t-25 -61t8 -71.5q-9 6 -15.5 9.5t-9.5 9.5q-11 20 -12 42t4 43q11 46 42 76q45 43 98 69t116 32q53 5 78 -24t13 -84q-6 -26 -16 -51t-21 -50q-23 -54 -48.5 -108t-46.5 -110q-32 -87 -58 -166t-41 -160q7 -18 29 -11
t51.5 30t63.5 58t67.5 75t62 80t47.5 72q-5 61 3 125.5t24 120.5t38 97.5t45 55.5q22 13 43.5 6.5t26.5 -34.5q5 -50 -7.5 -102.5t-33.5 -103t-46.5 -97t-46.5 -84.5q3 -10 8.5 -21t15.5 -20.5t25 -16t37 -7.5q-16 -9 -33 -10.5t-32 2.5t-28 12.5t-21 20.5q-36 -42 -69 -86
t-68 -85.5t-75 -78t-89 -63.5q-21 -11 -41.5 -10t-37.5 11t-28.5 29t-15.5 45q-8 55 2.5 108.5t24.5 102.5q12 63 40 133t59.5 135.5t60 121t42.5 88.5zM558 635q-19 -15 -37 -53t-32.5 -82.5t-22.5 -89t-6 -72.5q17 30 37 75t36 90t24 81.5t1 50.5z" />
    <glyph glyph-name="W" unicode="W" horiz-adv-x="774" 
d="M295 667q-17 16 -50.5 14t-71.5 -18t-76 -44t-64 -62t-35 -73t11 -77q-14 2 -22 11t-12 23q-14 55 9 104t65.5 86t98 60t107.5 26q50 2 77 -30t17 -85q-18 -75 -50 -144.5t-64.5 -138t-58.5 -138.5t-32 -147q9 -5 35 18t56.5 58.5t60 76t45.5 70.5q17 42 34 85t35.5 85
t41 81t49.5 74q4 10 16 20t24 14t21.5 -1.5t9.5 -26.5q-2 -11 -4 -22.5t-7 -21.5q-28 -61 -57.5 -125t-55 -130t-43.5 -133t-23 -134q-1 -9 1.5 -17.5t7.5 -13.5t11.5 -4.5t14.5 8.5q33 35 69 86.5t70 107t63 108t48 90.5q-11 39 -13.5 80t2 80t17 74.5t32.5 63.5
q12 16 28 25t31 9t26 -11t12 -33q2 -38 -6.5 -79.5t-22 -82.5t-29.5 -79t-31 -69q1 -14 5 -22.5t10 -15.5t13 -13t15 -15q-6 -4 -14.5 -2t-17.5 7t-16.5 11l-12.5 10q-32 -53 -64 -107t-65 -104.5t-68 -94t-74 -74.5q-42 -21 -75 -1t-42 74q-4 23 -5 45.5t-3 47.5
q-36 -42 -70 -76t-72 -61q-29 -20 -57 -7.5t-39 51.5q-8 26 -8.5 52t4.5 52q16 77 44 146.5t61.5 135.5t68.5 130.5t64 132.5zM693 429q13 29 25 63.5t21.5 67.5t15.5 61.5t8 45.5q-18 0 -34.5 -21.5t-27.5 -55.5t-14 -76.5t6 -84.5z" />
    <glyph glyph-name="X" unicode="X" horiz-adv-x="554" 
d="M125 416q-6 -12 -14 -11.5t-16 5.5q-33 20 -43.5 56t4.5 78q28 72 90 117t135 60q42 11 66 -2.5t34.5 -42t11 -67.5t-2.5 -80.5t-7.5 -80t-3.5 -65.5q34 42 77.5 93.5t90 97t93 76t86.5 30.5q5 0 15 -12.5t20 -20.5q-28 2 -61 -15.5t-69 -47t-72.5 -67.5t-70 -77
t-62.5 -75t-50 -61q-6 -58 -10.5 -120t-2.5 -119.5t12 -105.5t34 -78q23 -22 45 -22.5t42.5 11t38.5 29.5t32 34q13 -5 13 -12t-4 -15q-16 -26 -38.5 -48t-50 -34t-59 -11.5t-64.5 20.5q-38 28 -58.5 64.5t-29.5 81t-10 97t1 113.5q-22 -38 -50.5 -77.5t-62 -69t-71 -44.5
t-77.5 -4q3 8 3.5 19t5.5 14q19 -3 42.5 8.5t48.5 31.5t50 46.5t46.5 54.5t38.5 55.5t25 48.5q2 40 8 91t11.5 105.5t8.5 108.5t-1 100q-26 3 -58 -9t-62 -34t-54.5 -50.5t-35 -58.5t-2 -58.5t43.5 -50.5z" />
    <glyph glyph-name="Y" unicode="Y" horiz-adv-x="594" 
d="M297 -29q20 41 39.5 92t33.5 92q-14 -13 -34 -29.5t-45.5 -30.5t-55 -22t-60.5 -4q-22 2 -43 11.5t-38 25t-29 35.5t-16 44q-5 49 6.5 91t33.5 80t50 74t55.5 71.5t51 73t36.5 79.5q-24 10 -57 8t-67.5 -13.5t-67 -32.5t-56 -47.5t-34 -58.5t-1.5 -67q-15 -5 -20.5 3.5
t-7.5 16.5q-11 50 9 90t55 69t77 47t75 26q30 6 64.5 4.5t61.5 -14t40.5 -36.5t1.5 -63q-11 -30 -25.5 -56.5t-30.5 -51t-32.5 -48.5t-31.5 -49q-27 -45 -54 -88.5t-38 -90.5q-6 -18 -7.5 -35.5t4.5 -30t21.5 -19.5t44.5 -4q29 4 56 17t50.5 31.5t44.5 39.5t38 42
q11 13 17 30.5t13 34.5q20 61 46 117.5t57 110.5q18 33 39 62.5t51 51.5q14 11 31 19t34 17q4 1 11.5 -1t9.5 -7q4 -4 3 -10.5t-1 -11.5q-1 -5 -7 -9q-54 -68 -88.5 -147t-63.5 -162q-20 -56 -39.5 -110.5t-39.5 -110.5q-23 -66 -53.5 -127t-63.5 -121q-16 -27 -36.5 -55.5
t-44.5 -51.5t-52.5 -38.5t-60.5 -18.5q-20 -3 -40.5 1.5t-38 14.5t-30.5 25.5t-19 34.5q-31 100 29 166q22 22 51.5 37t61.5 19.5t64.5 -3t61.5 -29.5zM285 -63q-24 22 -54 28.5t-58.5 0.5t-52.5 -23.5t-38 -42.5q-15 -24 -15.5 -50.5t10 -47t30.5 -29.5t46 2q25 13 44.5 31
t35 39t28.5 44.5t24 47.5z" />
    <glyph glyph-name="Z" unicode="Z" horiz-adv-x="749" 
d="M214 299q-19 1 -34 1.5t-35 1.5q8 8 11.5 13.5t7.5 7.5q17 7 32.5 11.5t31.5 8.5q41 7 69 38q63 63 120.5 131t117.5 139q-43 5 -92.5 5.5t-98.5 -6t-94 -21.5t-79.5 -40.5t-55 -62.5t-20.5 -88q-8 -6 -15 -3.5t-10 8.5q-8 57 12 99.5t57.5 72.5t87.5 48.5t103.5 27.5
t105 10.5t91.5 -3.5q17 -2 35 -4t35.5 -3t34 1t31.5 9q16 7 29 7q7 0 14.5 -1t12.5 -6q6 -8 1.5 -17t-10.5 -16q-78 -79 -155.5 -154t-150.5 -155q14 3 32.5 1.5t33.5 -8t23.5 -17t2.5 -25.5h-140q-21 -20 -51.5 -53t-60.5 -68t-54 -65.5t-32 -44.5q41 -3 64 -8t41.5 -14
t39 -24.5t55.5 -40.5q33 -21 64.5 -24.5t58.5 6.5t49 30.5t38 46.5t24.5 56.5t8.5 59.5q-2 44 -40 58q-17 7 -32.5 1t-29.5 -17q-63 -48 -16 -120q-26 4 -39.5 21.5t-9.5 46.5q1 18 10.5 36.5t24.5 33.5t33.5 25.5t36.5 13.5q37 5 63.5 -18t31.5 -64q3 -32 -5.5 -67t-25 -69
t-41 -63t-53.5 -47.5t-62.5 -24t-67.5 8.5q-21 8 -41 18.5t-39 21.5q-24 21 -49.5 36t-52.5 21t-55 1t-57 -24q-17 -11 -37 -23q-17 -7 -25 -3.5t-10 11.5t1 19.5t8 21.5q21 40 44.5 75t48.5 68.5t50.5 66t48.5 67.5z" />
    <glyph glyph-name="zero" unicode="0" horiz-adv-x="371" 
d="M-2 92q-14 60 1.5 114t59.5 99q10 12 17 24.5t11 28.5q18 75 80 113q18 12 39 11.5t39.5 -9t33 -24.5t20.5 -35q6 -22 8.5 -43.5t3.5 -44.5q-2 -87 -31.5 -161.5t-80.5 -139.5q-11 -16 -25.5 -27.5t-34.5 -19.5q-29 -9 -55 -1.5t-46 31.5q-13 15 -22.5 35t-17.5 49z
M81 222q-2 -2 -4 -3t-1 -3q-15 -34 -18.5 -69.5t1.5 -73.5q2 -8 5 -15.5t7 -13.5q10 -20 23.5 -26t33.5 -1q12 3 22.5 8.5t18.5 15.5q11 12 20.5 23t18.5 24q27 42 45.5 87.5t25.5 96.5q3 17 3 34t1 34q0 33 -16 68q-8 17 -23 23t-33 0q-1 0 -2.5 -1t-3.5 -1
q-45 -27 -54 -78q-2 -6 -3 -10.5t-5 -9.5q-8 -9 -12 -20.5t-6 -23.5q-4 -29 -5.5 -57.5t5.5 -58.5q2 -8 1 -12q-2 -6 -7 -6q-2 -2 -5.5 -1t-4.5 3q-11 18 -18 35q-3 8 -5 16t-5 16z" />
    <glyph glyph-name="one" unicode="1" horiz-adv-x="197" 
d="M76 364q-10 -7 -17 -13.5t-15 -11.5q-3 -4 -7.5 -6.5t-9.5 -4.5q-6 -2 -11.5 1t-14.5 15q14 6 32 18.5t35.5 28.5t32 32.5t22.5 30.5q7 10 13 20.5t19 4.5q7 -4 10.5 -11.5t3.5 -15.5t-2 -16.5t-4 -14.5q-33 -90 -54 -189.5t-43 -193.5q-5 -17 -9 -34t-13 -27
q-8 -8 -21.5 -5t-13.5 16q-4 21 -1 44q4 43 13 83.5t19.5 81t20.5 82t15 85.5z" />
    <glyph glyph-name="two" unicode="2" horiz-adv-x="304" 
d="M126 311q-36 -6 -46 24q-8 34 3 57.5t33.5 36t52.5 15.5t61 -3q18 -4 29 -17t12 -32q0 -29 -12 -53t-26 -46q-19 -28 -42.5 -60t-46.5 -64.5t-42 -62.5t-29 -55q21 0 48 0.5t55 0t55 -3.5t48 -10q2 -1 1.5 -7t-2.5 -7q-4 -3 -9.5 -4t-10.5 -1q-54 0 -101.5 -1.5
t-98.5 -14.5q-7 -2 -18 -2.5t-21 1t-16.5 7.5t-3.5 18q10 43 32.5 85t51 81.5t58.5 75.5t54 69q5 7 12.5 18t12 22.5t2.5 21.5t-17 14q-24 4 -50 -2.5t-41.5 -21.5t-15 -35.5t27.5 -43.5z" />
    <glyph glyph-name="three" unicode="3" horiz-adv-x="383" 
d="M231 304q8 -5 14 -8.5t12 -6.5q35 -20 48.5 -48t8.5 -62q-10 -61 -43 -108t-91 -77q-23 -11 -51.5 -13.5t-54.5 4.5t-45.5 24t-23.5 46q-4 23 -2.5 46t12.5 44q6 9 10 10.5t6.5 -2t2.5 -10t-3 -12.5q-4 -16 -3 -32t5 -31q8 -22 25 -31.5t37.5 -10t40 6.5t32.5 19
q34 31 55 70t29 84q6 35 -14.5 51t-55.5 5q-5 -2 -10.5 -4t-10.5 -3q-8 -2 -16 4q-3 3 -4 8t0 7q4 14 13 26q26 33 52.5 63.5t52.5 61.5q-25 12 -51.5 8t-50 -18t-41.5 -35t-27 -43q0 -1 -6 -1q-1 3 -3 6.5t-2 7.5q-2 11 2 20.5t9 17.5q15 24 40.5 45t55.5 32t62.5 8.5
t60.5 -24.5q14 -18 12 -36.5t-15 -33.5q-16 -23 -35.5 -39.5t-38.5 -35.5z" />
    <glyph glyph-name="four" unicode="4" horiz-adv-x="367" 
d="M260 231q16 -2 35 0.5t33 0.5q3 -1 7 -5t4 -7q1 -3 -2.5 -7t-7.5 -5q-7 -2 -14.5 -2.5t-15.5 -1.5q-11 -2 -22 -2.5t-24 -2.5q-19 -51 -33 -100.5t-28 -99.5q-3 -13 -9 -23t-17 -15q-5 -2 -14 -0.5t-14 3.5q-2 1 -4.5 6t-2.5 9q5 56 21 106.5t29 102.5q-40 -4 -80 -10
t-76 -13q-28 -6 -33 27q-2 13 2 24t9 22q24 42 57.5 78t71.5 67t79 57.5t80 49.5q14 8 31 13q12 3 21 -6.5t5 -21.5q-2 -10 -6 -18.5t-7 -18.5q-5 -14 -16 -42t-22.5 -59t-22 -60.5t-14.5 -45.5zM53 211q15 0 32.5 2t36 4.5t36 5.5t31.5 5q8 21 18 46t19.5 50.5t18.5 50
t14 45.5q-67 -45 -122.5 -98.5t-83.5 -110.5z" />
    <glyph glyph-name="five" unicode="5" horiz-adv-x="350" 
d="M312 477q5 -8 1.5 -13t-8.5 -9q-29 -17 -59 -21t-62 -4q-17 -20 -26.5 -42.5t-19.5 -44.5q24 -3 49 -6t46 -23q39 -28 51 -70t1 -81q-10 -36 -30 -76t-49 -71.5t-66.5 -48t-82.5 -5.5q-27 10 -39.5 32.5t-15 49.5t3 53t14.5 43q5 6 9.5 8t12.5 -8q-7 -26 -9.5 -49.5
t4.5 -50.5q5 -17 17 -24.5t29 -2.5q24 6 43 22q43 35 70.5 88t33.5 104q1 28 -10.5 42.5t-29 20t-38 5t-38.5 -2.5q-11 0 -20.5 -1.5t-16 0t-9.5 8.5t-1 23q7 39 21.5 74.5t37.5 66.5q10 12 20.5 15.5t27.5 -2.5q18 -6 38 -5t39.5 4t35.5 4.5t25 -2.5z" />
    <glyph glyph-name="six" unicode="6" horiz-adv-x="340" 
d="M297 403q-16 10 -32 10.5t-31 -5.5t-29 -16t-25 -20q-38 -35 -65 -75.5t-41 -92.5q8 7 23 19t34 22t39 16.5t37 3.5q22 -3 36.5 -14.5t23 -27.5t11 -34.5t-0.5 -36.5q-18 -115 -115 -171q-45 -21 -78 -7.5t-54 45t-30 73t-6 75.5q9 95 62 166q20 25 43 48t48 40
t52.5 27.5t57.5 10.5q33 -1 58 -31q5 -9 7 -17t-0.5 -12.5t-8.5 -4t-16 8.5zM65 110q1 -17 6 -35.5t14 -33.5t22.5 -22.5t33.5 -1.5q26 11 55 45t47 85q1 13 1.5 27.5t-3 26.5t-12.5 19t-27 6q-36 -7 -67 -26.5t-55 -43.5q-21 -21 -15 -46z" />
    <glyph glyph-name="seven" unicode="7" horiz-adv-x="285" 
d="M23 -46q-10 5 -13.5 12.5t-2.5 15.5q2 13 3 25t4 23q15 65 43.5 121t68.5 107q30 40 62.5 77.5t62.5 77.5q-22 0 -57.5 -2.5t-71.5 -0.5t-67 12.5t-44 36.5q-1 2 -2 6t1 6q3 2 8 4.5t7 0.5q61 -26 120.5 -27t118.5 9q19 3 37.5 6.5t36.5 6.5q9 2 15 -5t3 -15
q-8 -16 -20 -33q-83 -108 -155.5 -211t-129.5 -219q-5 -7 -8 -13.5t-7 -12.5q-2 -4 -6.5 -5t-6.5 -3z" />
    <glyph glyph-name="eight" unicode="8" horiz-adv-x="426" 
d="M198 298q-20 16 -36.5 32t-24.5 33t-3.5 34.5t28.5 35.5q48 36 114 37q43 1 64.5 -22t8.5 -54q-14 -29 -33 -53t-36 -48q4 -2 8.5 -4t8.5 -4q26 -16 35.5 -37t9.5 -45q-2 -57 -29 -104t-75 -85q-41 -33 -100 -45q-22 -5 -46.5 -1t-44.5 16t-32.5 31t-11.5 43q3 35 22 73
q22 48 59.5 85t88.5 67q5 3 11 6.5t14 8.5zM263 268q-7 -7 -11 -11.5t-8 -8.5q-9 -10 -19 -18t-30 -3q-2 1 -7.5 -1.5t-7.5 -4.5q-35 -32 -60 -69.5t-38 -79.5q-3 -6 -4 -12.5t-2 -13.5q-2 -23 17 -33.5t42 -5.5q58 14 97.5 49t59.5 77q8 18 13 37t3.5 37.5t-12 34
t-33.5 26.5zM229 319q19 21 34.5 41.5t28.5 42.5q7 10 10 20q3 8 -1.5 13.5t-13.5 7.5q-14 2 -32 0t-35 -7.5t-31 -14t-21 -17.5q-9 -14 -6 -27t13 -24t25 -20t29 -15z" />
    <glyph glyph-name="nine" unicode="9" horiz-adv-x="331" 
d="M18 175q-38 39 -33 89q7 62 38.5 104t78.5 73q15 11 31.5 16t35.5 7q26 1 46.5 -10t40.5 -25q10 -7 13 -18t4 -22q5 -32 5.5 -64t-4.5 -63q-11 -61 -31.5 -116.5t-55.5 -106.5q-8 -11 -16.5 -21t-19.5 -18q-17 -15 -35 -15.5t-33.5 9t-28.5 25.5t-19.5 33t-6 32.5
t10.5 23.5q1 -17 8.5 -34t19.5 -28.5t27.5 -13t31.5 13.5q5 5 9 11t8 11q33 49 48.5 104.5t29.5 109.5q-3 2 -11.5 -10.5t-22.5 -31.5t-32 -39.5t-40 -33t-46.5 -13t-50.5 20.5zM231 400q-42 20 -75.5 11t-58.5 -33.5t-39 -58t-17 -61.5q0 -20 7 -34t18 -21t24.5 -4.5
t26.5 16.5q34 32 60.5 69.5t51.5 77.5q11 19 2 38z" />
    <glyph glyph-name="A" unicode="A" horiz-adv-x="790" 
d="M31 68q-2 -12 0.5 -25t9 -22t18 -12.5t28.5 4.5q29 15 53.5 39t45.5 52t38.5 58t33.5 58q-30 9 -51 16v8.5t1 3.5q14 5 25.5 7t22 3.5t20.5 3t20 5.5q40 56 76.5 107t79 99t95 93.5t123.5 90.5q-29 10 -66 13.5t-75 0.5t-73.5 -13.5t-60.5 -28.5t-35.5 -44t0.5 -60
q-17 6 -25.5 21.5t-7.5 35t11 39.5t30 34q33 26 79 39.5t96 16.5t100.5 -2.5t92.5 -16.5q8 -2 11 -3q45 -17 53.5 -38.5t-11.5 -60.5q-36 -71 -76.5 -142.5t-77 -145t-65.5 -150.5t-42 -158q36 12 75 39.5t76.5 63.5t69.5 76t53 78q7 -8 4 -23.5t-5 -20.5q-18 -39 -46 -75
t-60 -66.5t-65 -54.5t-61 -39q-19 -12 -40 -10.5t-38.5 13t-28.5 30t-10 40.5q2 46 15 86.5t26 82.5q-11 1 -34.5 1.5t-49.5 0.5h-50.5h-37.5q-23 -31 -47.5 -69t-52 -74t-58 -65.5t-65.5 -43.5q-19 -9 -41.5 -3.5t-36.5 20.5q-9 12 -13 25.5t-2.5 25.5t8 22t18.5 14z
M717 628q-48 -20 -102.5 -64t-105 -97t-91.5 -106.5t-62 -92.5q40 0 82 -2t73 -1q45 91 95.5 179t110.5 184z" />
    <glyph glyph-name="b" unicode="b" horiz-adv-x="395" 
d="M134 40q6 -6 13 -7t13.5 2t12.5 8t9 10q23 29 37 69.5t16 79.5q-1 31 -16 36.5t-34.5 -2.5t-38 -23t-27.5 -24q-26 -29 -44 -62.5t-32 -69.5q-5 -14 -10 -27t-12 -26q-10 -19 -20 -18t-18.5 12.5t-13 28t-3.5 28.5q0 34 6 66.5t15 64.5q49 169 147 306q22 30 44 52
q7 7 15 13t16 11q18 11 33.5 12.5t19.5 -6.5q5 -11 -1.5 -23.5t-12.5 -23.5q-28 -53 -56.5 -104.5t-56.5 -104.5q-6 -10 -11.5 -23t-11.5 -26.5t-11.5 -26t-9.5 -22.5q24 25 56.5 41.5t63.5 18t56 -14.5t36 -55q6 -29 2.5 -58.5t-14 -56.5t-27.5 -50.5t-36 -41.5
q-20 -18 -46.5 -22.5t-48.5 2.5t-34 25.5t-4 48.5q14 41 57 35q-4 -3 -10.5 -8.5t-11 -12.5t-5 -15t8.5 -16z" />
    <glyph glyph-name="a" unicode="a" horiz-adv-x="423" 
d="M253 41q7 -11 28 1t48.5 40.5t58.5 70.5t58 90q0 -8 2 -19t0 -15q-8 -19 -25.5 -50t-41.5 -62.5t-53 -58.5t-58.5 -38.5t-58 -1.5t-52.5 52q-17 -14 -34.5 -28t-37.5 -23q-25 -11 -52 -10.5t-49 11.5t-36 34t-12 58q5 66 37.5 121t79.5 91q19 16 51 27t64.5 12.5t60 -7.5
t38.5 -34q3 -7 4.5 -18t0.5 -19q-1 -13 3.5 -21.5t7.5 -18t1 -23t-15 -36.5q-17 -26 -23.5 -60.5t5.5 -64.5zM168 255q7 -12 17.5 -17t21 -3.5t19.5 8t14 15.5q9 17 -0.5 31t-29.5 14q-23 0 -42 -10.5t-34 -24.5q-43 -42 -73.5 -92.5t-36.5 -108.5q0 -17 6.5 -25.5
t16.5 -10.5t21 1t21 10q41 27 68.5 68.5t39.5 89.5q-14 9 -21 21t-8 34z" />
  </font>
</defs>
</svg>
